<svg xmlns="http://www.w3.org/2000/svg" xmlns:xlink="http://www.w3.org/1999/xlink" width="500" zoomAndPan="magnify" viewBox="0 0 375 374.999991" height="500" preserveAspectRatio="xMidYMid meet" version="1.0"><defs><g/><clipPath id="bc991e7b7a"><path d="M 154.902344 60.753906 L 184.417969 60.753906 L 184.417969 64.035156 L 154.902344 64.035156 Z M 154.902344 60.753906 " clip-rule="nonzero"/></clipPath><clipPath id="346993d870"><path d="M 188.257812 42.101562 L 217.773438 42.101562 L 217.773438 45.382812 L 188.257812 45.382812 Z M 188.257812 42.101562 " clip-rule="nonzero"/></clipPath></defs><g clip-path="url(#bc991e7b7a)"><path fill="#ffffff" d="M 154.902344 60.753906 L 184.414062 60.753906 L 184.414062 64.035156 L 154.902344 64.035156 Z M 154.902344 60.753906 " fill-opacity="1" fill-rule="nonzero"/></g><g clip-path="url(#346993d870)"><path fill="#ffffff" d="M 188.257812 42.101562 L 217.769531 42.101562 L 217.769531 45.382812 L 188.257812 45.382812 Z M 188.257812 42.101562 " fill-opacity="1" fill-rule="nonzero"/></g><g fill="#ffffff" fill-opacity="1"><g transform="translate(153.429251, 54.892679)"><g><path d="M 4.796875 0 L 4.796875 -10.5 L 0.578125 -10.5 L 0.578125 -13.34375 L 12.0625 -13.34375 L 12.0625 -10.5 L 7.828125 -10.5 L 7.828125 0 Z M 4.796875 0 "/></g></g></g><g fill="#ffffff" fill-opacity="1"><g transform="translate(170.010603, 54.892679)"><g><path d="M 7.9375 0.265625 C 6.550781 0.265625 5.316406 -0.0234375 4.234375 -0.609375 C 3.160156 -1.203125 2.320312 -2.019531 1.71875 -3.0625 C 1.113281 -4.101562 0.8125 -5.304688 0.8125 -6.671875 C 0.8125 -8.035156 1.113281 -9.238281 1.71875 -10.28125 C 2.320312 -11.320312 3.160156 -12.132812 4.234375 -12.71875 C 5.316406 -13.3125 6.550781 -13.609375 7.9375 -13.609375 C 9.332031 -13.609375 10.5625 -13.3125 11.625 -12.71875 C 12.695312 -12.132812 13.535156 -11.320312 14.140625 -10.28125 C 14.753906 -9.238281 15.0625 -8.035156 15.0625 -6.671875 C 15.0625 -5.304688 14.753906 -4.101562 14.140625 -3.0625 C 13.535156 -2.019531 12.695312 -1.203125 11.625 -0.609375 C 10.5625 -0.0234375 9.332031 0.265625 7.9375 0.265625 Z M 3.90625 -6.671875 C 3.90625 -5.867188 4.078125 -5.160156 4.421875 -4.546875 C 4.765625 -3.941406 5.238281 -3.46875 5.84375 -3.125 C 6.445312 -2.78125 7.144531 -2.609375 7.9375 -2.609375 C 8.726562 -2.609375 9.425781 -2.78125 10.03125 -3.125 C 10.632812 -3.46875 11.101562 -3.941406 11.4375 -4.546875 C 11.78125 -5.160156 11.953125 -5.867188 11.953125 -6.671875 C 11.953125 -7.472656 11.78125 -8.175781 11.4375 -8.78125 C 11.101562 -9.394531 10.632812 -9.875 10.03125 -10.21875 C 9.425781 -10.5625 8.726562 -10.734375 7.9375 -10.734375 C 7.144531 -10.734375 6.445312 -10.5625 5.84375 -10.21875 C 5.238281 -9.875 4.765625 -9.394531 4.421875 -8.78125 C 4.078125 -8.175781 3.90625 -7.472656 3.90625 -6.671875 Z M 3.90625 -6.671875 "/></g></g></g><g fill="#ffffff" fill-opacity="1"><g transform="translate(187.033279, 63.94909)"><g><path d="M 1.59375 0 L 1.59375 -13.34375 L 6.875 -13.34375 C 8.289062 -13.34375 9.523438 -13.0625 10.578125 -12.5 C 11.628906 -11.945312 12.445312 -11.164062 13.03125 -10.15625 C 13.625 -9.15625 13.921875 -7.992188 13.921875 -6.671875 C 13.921875 -5.335938 13.625 -4.171875 13.03125 -3.171875 C 12.445312 -2.171875 11.628906 -1.390625 10.578125 -0.828125 C 9.523438 -0.273438 8.289062 0 6.875 0 Z M 4.625 -2.78125 L 6.828125 -2.78125 C 7.609375 -2.78125 8.296875 -2.941406 8.890625 -3.265625 C 9.492188 -3.585938 9.960938 -4.039062 10.296875 -4.625 C 10.640625 -5.21875 10.8125 -5.898438 10.8125 -6.671875 C 10.8125 -7.460938 10.640625 -8.144531 10.296875 -8.71875 C 9.960938 -9.300781 9.492188 -9.753906 8.890625 -10.078125 C 8.285156 -10.398438 7.582031 -10.5625 6.78125 -10.5625 L 4.625 -10.5625 Z M 4.625 -2.78125 "/></g></g></g><g fill="#ffffff" fill-opacity="1"><g transform="translate(205.692017, 63.94909)"><g><path d="M 7.9375 0.265625 C 6.550781 0.265625 5.316406 -0.0234375 4.234375 -0.609375 C 3.160156 -1.203125 2.320312 -2.019531 1.71875 -3.0625 C 1.113281 -4.101562 0.8125 -5.304688 0.8125 -6.671875 C 0.8125 -8.035156 1.113281 -9.238281 1.71875 -10.28125 C 2.320312 -11.320312 3.160156 -12.132812 4.234375 -12.71875 C 5.316406 -13.3125 6.550781 -13.609375 7.9375 -13.609375 C 9.332031 -13.609375 10.5625 -13.3125 11.625 -12.71875 C 12.695312 -12.132812 13.535156 -11.320312 14.140625 -10.28125 C 14.753906 -9.238281 15.0625 -8.035156 15.0625 -6.671875 C 15.0625 -5.304688 14.753906 -4.101562 14.140625 -3.0625 C 13.535156 -2.019531 12.695312 -1.203125 11.625 -0.609375 C 10.5625 -0.0234375 9.332031 0.265625 7.9375 0.265625 Z M 3.90625 -6.671875 C 3.90625 -5.867188 4.078125 -5.160156 4.421875 -4.546875 C 4.765625 -3.941406 5.238281 -3.46875 5.84375 -3.125 C 6.445312 -2.78125 7.144531 -2.609375 7.9375 -2.609375 C 8.726562 -2.609375 9.425781 -2.78125 10.03125 -3.125 C 10.632812 -3.46875 11.101562 -3.941406 11.4375 -4.546875 C 11.78125 -5.160156 11.953125 -5.867188 11.953125 -6.671875 C 11.953125 -7.472656 11.78125 -8.175781 11.4375 -8.78125 C 11.101562 -9.394531 10.632812 -9.875 10.03125 -10.21875 C 9.425781 -10.5625 8.726562 -10.734375 7.9375 -10.734375 C 7.144531 -10.734375 6.445312 -10.5625 5.84375 -10.21875 C 5.238281 -9.875 4.765625 -9.394531 4.421875 -8.78125 C 4.078125 -8.175781 3.90625 -7.472656 3.90625 -6.671875 Z M 3.90625 -6.671875 "/></g></g></g></svg>