<svg xmlns="http://www.w3.org/2000/svg" xmlns:xlink="http://www.w3.org/1999/xlink" width="500" zoomAndPan="magnify" viewBox="0 0 375 374.999991" height="500" preserveAspectRatio="xMidYMid meet" version="1.0"><defs><g/><clipPath id="4e5aee0580"><path d="M 30.609375 222.726562 L 172.65625 222.726562 L 172.65625 238.523438 L 30.609375 238.523438 Z M 30.609375 222.726562 " clip-rule="nonzero"/></clipPath><clipPath id="33788314d6"><path d="M 191.148438 132.949219 L 333.195312 132.949219 L 333.195312 148.746094 L 191.148438 148.746094 Z M 191.148438 132.949219 " clip-rule="nonzero"/></clipPath></defs><g clip-path="url(#4e5aee0580)"><path fill="#000000" d="M 30.609375 222.726562 L 172.652344 222.726562 L 172.652344 238.523438 L 30.609375 238.523438 Z M 30.609375 222.726562 " fill-opacity="1" fill-rule="nonzero"/></g><g clip-path="url(#33788314d6)"><path fill="#000000" d="M 191.148438 132.949219 L 333.1875 132.949219 L 333.1875 148.746094 L 191.148438 148.746094 Z M 191.148438 132.949219 " fill-opacity="1" fill-rule="nonzero"/></g><g fill="#000000" fill-opacity="1"><g transform="translate(23.51919, 194.517133)"><g><path d="M 23.109375 0 L 23.109375 -50.546875 L 2.75 -50.546875 L 2.75 -64.21875 L 58.0625 -64.21875 L 58.0625 -50.546875 L 37.703125 -50.546875 L 37.703125 0 Z M 23.109375 0 "/></g></g></g><g fill="#000000" fill-opacity="1"><g transform="translate(103.324411, 194.517133)"><g><path d="M 38.15625 1.28125 C 31.488281 1.28125 25.570312 -0.140625 20.40625 -2.984375 C 15.238281 -5.828125 11.203125 -9.753906 8.296875 -14.765625 C 5.390625 -19.785156 3.9375 -25.566406 3.9375 -32.109375 C 3.9375 -38.648438 5.390625 -44.425781 8.296875 -49.4375 C 11.203125 -54.457031 15.238281 -58.390625 20.40625 -61.234375 C 25.570312 -64.078125 31.488281 -65.5 38.15625 -65.5 C 44.882812 -65.5 50.816406 -64.078125 55.953125 -61.234375 C 61.085938 -58.390625 65.125 -54.457031 68.0625 -49.4375 C 71 -44.425781 72.46875 -38.648438 72.46875 -32.109375 C 72.46875 -25.566406 71 -19.785156 68.0625 -14.765625 C 65.125 -9.753906 61.085938 -5.828125 55.953125 -2.984375 C 50.816406 -0.140625 44.882812 1.28125 38.15625 1.28125 Z M 18.8125 -32.109375 C 18.8125 -28.253906 19.632812 -24.859375 21.28125 -21.921875 C 22.9375 -18.984375 25.210938 -16.6875 28.109375 -15.03125 C 31.015625 -13.382812 34.363281 -12.5625 38.15625 -12.5625 C 42.007812 -12.5625 45.390625 -13.382812 48.296875 -15.03125 C 51.203125 -16.6875 53.460938 -18.984375 55.078125 -21.921875 C 56.703125 -24.859375 57.515625 -28.253906 57.515625 -32.109375 C 57.515625 -35.960938 56.703125 -39.351562 55.078125 -42.28125 C 53.460938 -45.21875 51.203125 -47.507812 48.296875 -49.15625 C 45.390625 -50.8125 42.007812 -51.640625 38.15625 -51.640625 C 34.363281 -51.640625 31.015625 -50.8125 28.109375 -49.15625 C 25.210938 -47.507812 22.9375 -45.21875 21.28125 -42.28125 C 19.632812 -39.351562 18.8125 -35.960938 18.8125 -32.109375 Z M 18.8125 -32.109375 "/></g></g></g><g fill="#000000" fill-opacity="1"><g transform="translate(185.253712, 238.105196)"><g><path d="M 7.703125 0 L 7.703125 -64.21875 L 33.109375 -64.21875 C 39.898438 -64.21875 45.832031 -62.867188 50.90625 -60.171875 C 55.988281 -57.484375 59.9375 -53.722656 62.75 -48.890625 C 65.5625 -44.054688 66.96875 -38.460938 66.96875 -32.109375 C 66.96875 -25.679688 65.5625 -20.066406 62.75 -15.265625 C 59.9375 -10.472656 55.988281 -6.726562 50.90625 -4.03125 C 45.832031 -1.34375 39.898438 0 33.109375 0 Z M 22.296875 -13.390625 L 32.84375 -13.390625 C 36.632812 -13.390625 39.96875 -14.171875 42.84375 -15.734375 C 45.71875 -17.296875 47.960938 -19.484375 49.578125 -22.296875 C 51.203125 -25.109375 52.015625 -28.378906 52.015625 -32.109375 C 52.015625 -35.898438 51.203125 -39.1875 49.578125 -41.96875 C 47.960938 -44.75 45.703125 -46.921875 42.796875 -48.484375 C 39.890625 -50.046875 36.507812 -50.828125 32.65625 -50.828125 L 22.296875 -50.828125 Z M 22.296875 -13.390625 "/></g></g></g><g fill="#000000" fill-opacity="1"><g transform="translate(275.05729, 238.105196)"><g><path d="M 38.15625 1.28125 C 31.488281 1.28125 25.570312 -0.140625 20.40625 -2.984375 C 15.238281 -5.828125 11.203125 -9.753906 8.296875 -14.765625 C 5.390625 -19.785156 3.9375 -25.566406 3.9375 -32.109375 C 3.9375 -38.648438 5.390625 -44.425781 8.296875 -49.4375 C 11.203125 -54.457031 15.238281 -58.390625 20.40625 -61.234375 C 25.570312 -64.078125 31.488281 -65.5 38.15625 -65.5 C 44.882812 -65.5 50.816406 -64.078125 55.953125 -61.234375 C 61.085938 -58.390625 65.125 -54.457031 68.0625 -49.4375 C 71 -44.425781 72.46875 -38.648438 72.46875 -32.109375 C 72.46875 -25.566406 71 -19.785156 68.0625 -14.765625 C 65.125 -9.753906 61.085938 -5.828125 55.953125 -2.984375 C 50.816406 -0.140625 44.882812 1.28125 38.15625 1.28125 Z M 18.8125 -32.109375 C 18.8125 -28.253906 19.632812 -24.859375 21.28125 -21.921875 C 22.9375 -18.984375 25.210938 -16.6875 28.109375 -15.03125 C 31.015625 -13.382812 34.363281 -12.5625 38.15625 -12.5625 C 42.007812 -12.5625 45.390625 -13.382812 48.296875 -15.03125 C 51.203125 -16.6875 53.460938 -18.984375 55.078125 -21.921875 C 56.703125 -24.859375 57.515625 -28.253906 57.515625 -32.109375 C 57.515625 -35.960938 56.703125 -39.351562 55.078125 -42.28125 C 53.460938 -45.21875 51.203125 -47.507812 48.296875 -49.15625 C 45.390625 -50.8125 42.007812 -51.640625 38.15625 -51.640625 C 34.363281 -51.640625 31.015625 -50.8125 28.109375 -49.15625 C 25.210938 -47.507812 22.9375 -45.21875 21.28125 -42.28125 C 19.632812 -39.351562 18.8125 -35.960938 18.8125 -32.109375 Z M 18.8125 -32.109375 "/></g></g></g></svg>